<svg width="46" height="44" viewBox="0 0 46 44" fill="none" xmlns="http://www.w3.org/2000/svg">
<g clip-path="url(#clip0_5_2300)">
<path fill-rule="evenodd" clip-rule="evenodd" d="M23.2068 0.00012207C35.6201 0.00012207 45.5507 9.65717 45.5507 21.4843C45.5507 33.42 35.5072 42.9685 23.2068 42.9685C10.9063 43.077 0.862793 33.42 0.862793 21.4843C0.862793 9.65717 10.9063 0.00012207 23.2068 0.00012207Z" fill="#4D2C5E"/>
<path fill-rule="evenodd" clip-rule="evenodd" d="M33.9106 9.77692C37.6493 8.18064 33.0786 17.9578 32.5349 23.2369C32.0917 27.5405 39.713 37.4174 32.5349 33.8523C25.3568 30.2871 30.761 23.3022 22.9747 23.2369C15.1885 23.1715 22.5207 42.5117 13.1346 26.3907C13.1346 26.3907 11.7316 23.3401 11.2145 21.2754C10.4207 18.1056 4.73384 17.4884 10.6342 12.9454C16.5346 8.40247 10.3944 10.5538 11.2145 9.39073C13.0588 6.77534 16.843 8.70587 16.5346 15.66C16.2262 22.614 17.6767 18.4409 17.6767 18.4409L16.1927 22.2154C16.1711 24.6025 18.9163 19.4796 22.076 19.5061C25.2356 19.5326 28.1315 24.8113 28.1542 22.3158L28.2093 16.2397C28.234 13.5271 30.172 11.3732 33.9106 9.77692Z" fill="white"/>
</g>
<defs>
<clipPath id="clip0_5_2300">
<rect width="44.8008" height="43.0769" fill="white" transform="translate(0.862793 0.00012207)"/>
</clipPath>
</defs>
</svg>
