<svg width="169" height="177" viewBox="0 0 169 177" fill="none" xmlns="http://www.w3.org/2000/svg">
<path fill-rule="evenodd" clip-rule="evenodd" d="M151.705 108.295C150.728 107.335 149.176 107.349 148.208 108.312C136.605 119.472 124.388 125.149 111.932 125.291C99.8024 125.428 87.5484 120.166 75.5259 109.74C72.8535 107.465 68.7227 102.726 65.089 97.1322C68.138 92.7467 70.1697 87.5532 71.1729 82.5496C72.6525 75.1597 71.5751 68.365 69.1365 64.9997C67.7852 63.1362 66.0428 61.9943 64.0056 61.5183C61.3978 60.9126 57.8545 61.453 53.7878 64.9024C48.177 69.6839 46.8131 76.5112 48.4893 84.0251C49.3746 87.975 51.1619 92.1202 53.3883 96.1036C50.8122 98.1601 47.607 99.3497 43.7064 98.9214C35.4497 98.0707 29.2589 91.2909 24.8553 83.3139C21.0363 76.4131 16.4355 66.2184 17.6517 58.1178C18.0634 55.365 19.2677 52.9991 16.9957 50.7493C13.5174 47.2684 10.3289 50.8717 9.75802 54.6526C8.53604 62.775 11.4312 72.5591 14.2885 80.0519C19.5324 93.8406 29.3728 106.242 42.66 107.952C48.8892 108.725 54.1747 107.069 58.4561 103.991C62.5199 109.631 66.9028 114.297 69.7786 116.638C84.008 127.993 98.3287 133.273 112.185 132.47C126.027 131.675 139.452 124.879 151.722 111.791C152.682 110.814 152.681 109.255 151.705 108.295ZM59.4101 86.1832C58.546 83.8916 57.9621 81.6401 57.7909 79.4993C57.5776 76.7769 58.1028 74.2523 60.2246 72.4581C60.5841 72.1588 61.022 71.7407 61.3816 71.4414C61.652 72.3867 62.1198 74.2462 62.1266 75.7844C62.1261 79.2177 61.3457 83.3033 59.7791 87.1084C59.6317 86.7896 59.514 86.4903 59.4101 86.1832Z" fill="#FF7426"/>
<path fill-rule="evenodd" clip-rule="evenodd" d="M61.7079 71.1802C61.9511 71.3151 62.1842 71.4009 62.1656 71.2097C62.1369 70.9692 61.9754 71.0074 61.7079 71.1802Z" fill="#FF7426"/>
<path fill-rule="evenodd" clip-rule="evenodd" d="M144.906 113.724C143.776 116.249 142.684 118.936 141.904 121.497C140.705 125.494 140.191 129.151 141.177 131.812C141.485 133.14 142.823 133.964 144.143 133.643C145.471 133.335 146.295 131.997 145.974 130.677C145.906 130.018 146.136 129.335 146.353 128.567C146.85 126.756 147.961 124.866 149.171 122.828C150.717 120.228 152.577 117.63 154.164 115.227C155.608 113.053 156.811 111.036 157.577 109.438C158.787 106.922 158.852 104.81 158.579 103.572C158.502 103.249 155.821 98.4455 151.234 100.359C149.595 101.049 145.531 103.009 145.331 103.107C142.889 104.443 138.354 106.859 134.035 108.123C132.671 108.525 131.353 108.882 130.152 108.933C130.089 108.822 130.025 108.712 129.948 108.61C128.826 107.018 126.646 106.643 125.045 107.75C124.158 108.281 123.001 109.775 122.692 110.67C122.098 112.408 122.759 113.807 124.381 114.963C126.591 116.533 129.788 116.982 133.381 116.688C137.158 116.362 141.438 115.029 144.906 113.724ZM148.895 105.656C149.163 105.135 149.254 104.752 148.893 104.667C148.488 104.57 148.758 105.259 148.895 105.656Z" fill="#FF7426"/>
</svg>
