<svg width="144" height="84" viewBox="0 0 144 84" fill="none" xmlns="http://www.w3.org/2000/svg">
<path fill-rule="evenodd" clip-rule="evenodd" d="M142.705 59.2947C141.729 58.3347 140.177 58.3495 139.209 59.3122C127.606 70.4723 115.389 76.149 102.932 76.2912C90.8026 76.428 78.5487 71.166 66.5261 60.7402C63.8538 58.4646 59.723 53.7265 56.0893 48.1322C59.1382 43.7467 61.1699 38.5532 62.1731 33.5496C63.6527 26.1597 62.5753 19.365 60.1367 15.9997C58.7855 14.1362 57.0431 12.9943 55.0058 12.5183C52.3981 11.9126 48.8547 12.453 44.788 15.9024C39.1772 20.6839 37.8134 27.5112 39.4895 35.0251C40.3748 38.975 42.1622 43.1202 44.3886 47.1036C41.8124 49.1601 38.6073 50.3497 34.7067 49.9214C26.4499 49.0707 20.2591 42.2909 15.8555 34.3139C12.0365 27.4131 7.43576 17.2184 8.65193 9.11784C9.06366 6.36503 10.2679 3.99914 7.99599 1.74931C4.51761 -1.73161 1.3291 1.8717 0.758267 5.65265C-0.463718 13.775 2.43141 23.5591 5.28872 31.0519C10.5326 44.8406 20.373 57.2423 33.6603 58.952C39.8894 59.7249 45.175 58.0685 49.4563 54.9909C53.5201 60.6305 57.903 65.2965 60.7788 67.6383C75.0083 78.993 89.329 84.2734 103.185 83.4702C117.027 82.675 130.452 75.8788 142.723 62.791C143.683 61.8145 143.682 60.2546 142.705 59.2947ZM50.4104 37.1832C49.5463 34.8916 48.9624 32.6401 48.7911 30.4993C48.5779 27.7769 49.103 25.2523 51.2248 23.4581C51.5844 23.1588 52.0223 22.7407 52.3818 22.4414C52.6522 23.3867 53.12 25.2462 53.1269 26.7844C53.1264 30.2177 52.3459 34.3033 50.7793 38.1084C50.632 37.7896 50.5143 37.4903 50.4104 37.1832Z" fill="#4D2C5E"/>
</svg>
